<svg width="371" height="324" viewBox="0 0 371 324" fill="none" xmlns="http://www.w3.org/2000/svg">
<g clip-path="url(#clip0_493_2456)">
<path d="M78.3907 88.1701C105.971 72.0201 133.211 55.8701 161.171 40.2801C175.711 32.1701 192.131 29.9701 207.321 37.9401C221.851 45.5601 238.651 55.0001 252.621 63.6001C280.641 80.8401 277.381 104.24 277.271 133.9L278.031 134.65C283.621 131.95 289.091 129.12 294.161 125.55L294.301 124.92C294.801 95.6001 289.831 69.0601 263.741 52.5001C249.211 43.2801 231.231 33.8901 215.821 25.9701C200.411 18.0501 187.401 11.7001 169.001 19.1501C149.621 26.9901 130.541 42.6501 111.221 51.3101C97.9107 58.8901 84.2907 69.9101 70.7507 76.8001C70.3407 77.0101 69.7007 77.6601 69.4007 76.9501C75.0307 59.2101 90.0607 45.3701 105.941 36.5401C116.471 30.6901 126.991 24.6001 137.241 18.7701C148.181 12.5401 163.391 2.62006 175.671 0.850062C196.921 -2.21994 207.411 3.71006 225.141 13.1701C238.671 20.3901 253.531 28.2901 266.611 36.1501C276.781 42.2601 285.021 48.5401 291.871 58.3601C307.081 80.1901 310.231 109.09 308.381 135.05C307.421 137.1 291.221 144.96 288.101 146.75C261.501 162.03 234.811 179.31 207.821 193.39C185.951 204.79 176.091 198.15 156.511 187.72C144.511 181.33 132.211 174.65 120.531 167.73C96.9607 153.78 96.9307 135.57 96.9007 110.45C96.9007 108.3 97.1807 96.4901 96.6407 95.6801C95.1807 93.4501 82.7607 102.67 79.4007 105.45C79.0007 105.78 78.6507 105.97 78.4807 106.53C77.6507 109.28 78.5307 119.97 78.8907 123.42C80.3307 137.42 85.0407 154.4 93.4607 165.81C102.851 178.55 132.411 191.6 147.191 199.52C169.441 211.45 182.381 224.1 208.141 210.2C234.711 195.86 263.811 180.16 289.021 163.66C293.271 160.88 298.221 156.43 302.481 154.14C303.081 153.82 303.431 153.46 304.241 153.66C305.191 154.63 299.321 165.71 298.261 167.41C287.711 184.32 271.251 191.96 254.641 201.26C248.661 204.61 233.531 213.93 232.291 214.61C223.551 219.44 207.551 228.89 198.411 230.95C177.171 235.74 163.101 225.65 145.331 216.37C131.011 208.88 114.931 200.82 101.211 192.53C77.7607 178.36 66.4107 152.05 64.8907 125.17C64.8507 124.52 64.8907 99.7901 64.9707 96.5201C65.2207 95.7701 76.6707 89.2001 78.3807 88.1901L78.3907 88.1701ZM243.101 75.8801C233.761 70.3101 223.581 65.5901 214.061 60.1801C201.251 52.9001 191.391 43.4201 175.311 50.4201C153.891 62.6201 132.151 74.3201 111.121 87.1701C110.341 98.2701 109.801 110.25 110.371 121.39C110.781 129.32 112.201 138.61 117.351 144.89C124.911 154.1 151.011 166.92 162.411 173.17C175.041 180.09 184.601 188 199.821 180.36C212.081 174.21 224.201 166.27 235.661 159.63C244.521 154.5 253.611 149.72 262.281 144.27C262.451 132.55 263.441 120.12 262.791 108.38C261.871 91.7301 257.181 84.2801 243.091 75.8801H243.101Z" fill="#122636"/>
<path d="M11.88 323.23L0 270.74H6.7L13.25 301.12L16.42 316.46H16.85L29.16 270.74H37.15L49.53 316.53H50.03L53.05 301.12L59.53 270.74H66.23L54.35 323.23H45.78L33.32 278.37H32.89L20.43 323.23H11.86H11.88Z" fill="white"/>
<path d="M72.4297 279.17V270.75H78.2597V279.17H72.4297ZM72.4297 323.23V285.43H78.2597V323.23H72.4297Z" fill="white"/>
<path d="M101.808 323.949C96.9081 323.949 93.1081 322.799 90.3981 320.489C87.6881 318.189 86.3281 315.159 86.3281 311.419H92.1581C92.1581 314.199 93.0581 316.259 94.8581 317.579C96.6581 318.899 99.0181 319.559 101.948 319.559C104.878 319.559 107.118 319.009 108.678 317.899C110.238 316.799 111.018 315.239 111.018 313.219C111.018 310.959 110.278 309.399 108.788 308.539C107.298 307.679 104.848 306.979 101.448 306.449C96.7881 305.779 93.2881 304.709 90.9381 303.249C88.5881 301.789 87.4081 299.299 87.4081 295.799C87.4081 292.489 88.7281 289.809 91.3681 287.769C94.0081 285.729 97.4881 284.709 101.808 284.709C106.128 284.709 109.778 285.779 112.318 287.909C114.858 290.049 116.158 292.909 116.208 296.509H110.518C110.468 293.919 109.658 292.049 108.068 290.889C106.478 289.729 104.368 289.159 101.728 289.159C99.0881 289.159 96.9481 289.709 95.4681 290.819C93.9781 291.929 93.2381 293.389 93.2381 295.209C93.2381 297.269 94.0381 298.749 95.6481 299.639C97.2581 300.529 99.8381 301.209 103.388 301.689C106.218 302.069 108.648 302.649 110.658 303.419C112.678 304.189 114.218 305.299 115.298 306.769C116.378 308.229 116.918 310.219 116.918 312.709C116.918 316.309 115.538 319.079 112.778 321.029C110.018 322.969 106.358 323.949 101.798 323.949H101.808Z" fill="white"/>
<path d="M140.109 323.879C134.689 323.879 130.469 322.119 127.469 318.589C124.469 315.059 122.969 310.369 122.969 304.509C122.969 300.529 123.629 297.059 124.949 294.109C126.269 291.159 128.189 288.879 130.709 287.269C133.229 285.659 136.289 284.859 139.889 284.859C143.729 284.859 146.899 285.719 149.389 287.449C151.889 289.179 153.699 291.589 154.829 294.689C155.959 297.789 156.379 301.329 156.089 305.309H128.659C128.759 310.009 129.819 313.529 131.859 315.859C133.899 318.189 136.649 319.349 140.099 319.349C142.879 319.349 145.159 318.649 146.939 317.259C148.719 315.869 149.839 314.039 150.319 311.789H155.939C155.409 315.629 153.669 318.609 150.719 320.719C147.769 322.829 144.229 323.889 140.099 323.889L140.109 323.879ZM139.889 289.389C136.719 289.389 134.149 290.389 132.189 292.379C130.219 294.369 129.089 297.289 128.809 301.129H150.409C150.309 297.049 149.289 294.069 147.349 292.199C145.409 290.329 142.919 289.389 139.899 289.389H139.889Z" fill="white"/>
<path d="M187.921 323.95C182.591 323.95 177.941 322.9 173.951 320.78C169.971 318.67 166.861 315.61 164.631 311.6C162.401 307.59 161.281 302.71 161.281 296.95C161.281 291.19 162.401 286.38 164.631 282.37C166.861 278.36 169.971 275.3 173.951 273.19C177.931 271.08 182.591 270.02 187.921 270.02C192.481 270.02 196.551 270.81 200.121 272.4C203.701 273.98 206.581 276.2 208.761 279.06C210.941 281.92 212.251 285.24 212.681 289.03H199.581C199.001 286.68 197.671 284.76 195.581 283.27C193.491 281.78 190.941 281.04 187.911 281.04C183.831 281.04 180.581 282.33 178.151 284.89C175.731 287.46 174.511 291.48 174.511 296.95C174.511 302.42 175.721 306.52 178.151 309.08C180.571 311.65 183.831 312.93 187.911 312.93C190.841 312.93 193.381 312.2 195.541 310.73C197.701 309.27 199.041 307.31 199.571 304.86H212.671C212.241 308.65 210.911 311.98 208.671 314.83C206.441 317.69 203.531 319.92 199.961 321.53C196.381 323.14 192.361 323.94 187.901 323.94L187.921 323.95Z" fill="#00ACAC"/>
<path d="M219.16 323.23V270.74H231.33V291.04H231.91C232.87 288.59 234.43 286.74 236.59 285.5C238.75 284.25 241.15 283.63 243.79 283.63C246.43 283.63 248.71 284.16 250.77 285.21C252.83 286.27 254.47 287.96 255.67 290.29C256.87 292.62 257.47 295.73 257.47 299.61V323.23H245.3V302.28C245.3 299.35 244.8 297.16 243.79 295.69C242.78 294.23 241.13 293.49 238.82 293.49C236.37 293.49 234.51 294.31 233.24 295.94C231.97 297.57 231.33 299.4 231.33 301.41V323.23H219.16Z" fill="#00ACAC"/>
<path d="M278.639 323.949C274.029 323.949 270.319 322.279 267.519 318.949C264.709 315.619 263.309 310.559 263.309 303.789C263.309 297.019 264.709 291.969 267.519 288.629C270.329 285.289 274.039 283.629 278.639 283.629C281.519 283.629 283.999 284.279 286.089 285.569C288.179 286.859 289.679 288.569 290.589 290.679H291.239L291.669 284.339H303.409V323.219H291.239V316.879H290.589C289.679 318.989 288.179 320.699 286.089 321.989C283.999 323.279 281.519 323.929 278.639 323.929V323.949ZM283.389 314.159C285.169 314.159 286.619 313.739 287.749 312.899C288.879 312.059 289.719 310.989 290.269 309.699C290.819 308.399 291.099 307.009 291.099 305.519V302.059C291.099 300.569 290.819 299.169 290.269 297.849C289.719 296.529 288.879 295.459 287.749 294.649C286.619 293.829 285.169 293.429 283.389 293.429C281.089 293.429 279.229 294.249 277.809 295.879C276.389 297.509 275.689 300.149 275.689 303.799C275.689 307.449 276.399 310.029 277.809 311.679C279.229 313.339 281.089 314.159 283.389 314.159Z" fill="#00ACAC"/>
<path d="M311.762 279.82V270.75H323.932V279.82H311.762ZM311.762 323.23V284.35H323.932V323.23H311.762Z" fill="#00ACAC"/>
<path d="M332.352 323.229V284.349H344.092L344.522 291.049H345.102C346.062 288.599 347.622 286.749 349.782 285.509C351.942 284.259 354.342 283.639 356.982 283.639C359.622 283.639 361.902 284.169 363.962 285.219C366.022 286.279 367.662 287.969 368.862 290.299C370.062 292.629 370.662 295.739 370.662 299.619V323.239H358.492V302.289C358.492 299.359 357.992 297.169 356.982 295.699C355.972 294.239 354.322 293.499 352.012 293.499C349.562 293.499 347.702 294.319 346.432 295.949C345.162 297.579 344.522 299.409 344.522 301.419V323.239H332.352V323.229Z" fill="#00ACAC"/>
<path d="M109 84L128.758 90.1584C141.135 94.016 152.643 100.243 162.642 108.493L177.085 120.41C178.083 121.233 179.147 121.986 180.338 122.492C185.665 124.755 191.706 124.673 196.965 122.273C198.282 121.673 199.429 120.769 200.488 119.782L210.081 110.839C220.571 101.061 233.041 93.653 246.646 89.1181L262 84M188.848 124.128V192" stroke=" #122636" stroke-width="15"/>
<path d="M184.5 42L113.5 80.5L138 93L162 106L192.5 124.5L220.5 101.5L257.5 80.5L184.5 42Z" fill="#122636"/>
</g>
<defs>
<clipPath id="clip0_493_2456">
<rect width="370.65" height="323.95" fill="white"/>
</clipPath>
</defs>
</svg>
